<svg width="752" height="187" viewBox="0 0 752 187" fill="none" xmlns="http://www.w3.org/2000/svg">
<g filter="url(#filter0_d_0_1)">
<path d="M279.569 148V81.3502H291.875L317.385 121.681V81.3502H332.925V148H320.529L295.019 107.759V148H279.569ZM343.247 148V97.3389C343.247 94.225 343.726 91.6201 344.684 89.5242C345.702 87.4283 346.96 85.8115 348.457 84.6737C350.014 83.476 351.75 82.6377 353.667 82.1586C355.583 81.6196 357.439 81.3502 359.236 81.3502C361.212 81.3502 363.817 81.3801 367.051 81.44C370.344 81.4999 373.847 81.6196 377.56 81.7993C381.333 81.9789 384.926 82.2784 388.339 82.6975V95.7221H363.637C361.96 95.7221 360.733 96.1712 359.954 97.0695C359.176 97.9677 358.787 99.0157 358.787 100.213V109.555L383.938 110.364V122.669L358.787 123.478V148H343.247ZM409.707 148V95.273H392.192V81.3502H442.673V95.273H425.157V148H409.707ZM464.248 148.42C462.801 148.42 461.331 148.373 459.838 148.28C458.391 148.187 456.944 148.07 455.498 147.93C454.098 147.743 452.721 147.533 451.368 147.3C450.061 147.067 448.848 146.81 447.728 146.53V136.94C449.221 137.08 450.878 137.197 452.698 137.29C454.518 137.383 456.361 137.453 458.228 137.5C460.141 137.547 461.938 137.57 463.618 137.57C465.251 137.57 466.628 137.453 467.748 137.22C468.914 136.94 469.801 136.497 470.408 135.89C471.014 135.237 471.318 134.35 471.318 133.23V131.9C471.318 130.64 470.898 129.683 470.058 129.03C469.264 128.377 468.238 128.05 466.978 128.05H462.918C457.691 128.05 453.724 126.907 451.018 124.62C448.311 122.333 446.958 118.483 446.958 113.07V110.62C446.958 105.533 448.451 101.777 451.438 99.35C454.424 96.8767 458.718 95.64 464.318 95.64C466.371 95.64 468.354 95.7567 470.268 95.99C472.181 96.1767 474.001 96.41 475.728 96.69C477.454 96.97 478.971 97.2733 480.278 97.6V107.12C478.131 106.98 475.728 106.84 473.068 106.7C470.408 106.56 467.981 106.49 465.788 106.49C464.341 106.49 463.058 106.63 461.938 106.91C460.818 107.143 459.954 107.61 459.348 108.31C458.741 108.963 458.438 109.943 458.438 111.25V112.23C458.438 113.723 458.858 114.82 459.698 115.52C460.584 116.22 461.914 116.57 463.688 116.57H468.518C471.738 116.57 474.398 117.177 476.498 118.39C478.598 119.557 480.161 121.19 481.188 123.29C482.261 125.343 482.798 127.677 482.798 130.29V132.88C482.798 137.173 482.028 140.44 480.488 142.68C478.994 144.92 476.848 146.437 474.048 147.23C471.294 148.023 468.028 148.42 464.248 148.42Z" fill="url(#paint0_linear_0_1)"/>
</g>
<path d="M530.5 122C530.5 129.764 526.763 137.471 519.355 144.815C511.934 152.173 501.018 158.96 487.248 164.734C459.722 176.277 421.453 183.5 379 183.5C336.547 183.5 298.278 176.277 270.752 164.734C256.982 158.96 246.066 152.173 238.645 144.815C231.237 137.471 227.5 129.764 227.5 122C227.5 114.236 231.237 106.529 238.645 99.1845C246.066 91.8271 256.982 85.0403 270.752 79.2657C298.278 67.7227 336.547 60.5 379 60.5C421.453 60.5 459.722 67.7227 487.248 79.2657C501.018 85.0403 511.934 91.8271 519.355 99.1845C526.763 106.529 530.5 114.236 530.5 122Z" stroke="url(#paint1_linear_0_1)" stroke-width="7"/>
<g filter="url(#filter1_d_0_1)">
<path d="M4.74353 54V3.77909H22.5345C40.3721 3.77909 49.291 11.9391 49.291 28.2592C49.291 36.0806 46.8511 42.3261 41.9714 46.9957C37.1151 51.6652 30.6361 54 22.5345 54H4.74353ZM16.0555 12.9898V44.8244H21.6589C26.562 44.8244 30.4027 43.3534 33.181 40.4116C35.9828 37.4698 37.3836 33.4657 37.3836 28.3992C37.3836 23.613 35.9944 19.854 33.2161 17.1223C30.461 14.3673 26.5853 12.9898 21.5889 12.9898H16.0555ZM62.1439 12.4644C60.276 12.4644 58.7468 11.9158 57.556 10.8184C56.3653 9.69773 55.7699 8.33189 55.7699 6.7209C55.7699 5.06321 56.3653 3.70905 57.556 2.6584C58.7468 1.60775 60.276 1.08243 62.1439 1.08243C64.035 1.08243 65.5643 1.60775 66.7317 2.6584C67.9224 3.70905 68.5178 5.06321 68.5178 6.7209C68.5178 8.40194 67.9224 9.77945 66.7317 10.8534C65.5643 11.9274 64.035 12.4644 62.1439 12.4644ZM67.6072 54H56.5404V18.1379H67.6072V54ZM74.5765 53.0544V44.0889C76.3976 45.1862 78.2071 46.0034 80.0049 46.5404C81.826 47.0774 83.542 47.3459 85.153 47.3459C87.1142 47.3459 88.6552 47.0774 89.7759 46.5404C90.9199 46.0034 91.4919 45.1862 91.4919 44.0889C91.4919 43.3885 91.2351 42.8048 90.7215 42.3378C90.2078 41.8709 89.5424 41.4623 88.7252 41.1121C87.9314 40.7619 87.0559 40.4467 86.0986 40.1665C85.1413 39.8863 84.2191 39.5711 83.3319 39.2209C81.9077 38.6839 80.6469 38.1119 79.5496 37.5048C78.4756 36.8745 77.565 36.1507 76.8179 35.3335C76.0941 34.5163 75.5338 33.5708 75.1369 32.4968C74.7633 31.4228 74.5765 30.1503 74.5765 28.6794C74.5765 26.6715 75.0084 24.9438 75.8723 23.4962C76.7595 22.0487 77.9269 20.8696 79.3745 19.959C80.8454 19.0251 82.5147 18.3481 84.3825 17.9278C86.2737 17.4842 88.2349 17.2624 90.2662 17.2624C91.8538 17.2624 93.4648 17.3908 95.0991 17.6476C96.7335 17.8811 98.3445 18.2313 99.9321 18.6983V27.2435C98.5313 26.4264 97.0253 25.8193 95.4143 25.4224C93.8267 25.0022 92.2624 24.792 90.7215 24.792C89.9977 24.792 89.3089 24.8621 88.6552 25.0022C88.0248 25.1189 87.4644 25.3057 86.9741 25.5625C86.4838 25.796 86.0986 26.1112 85.8184 26.5081C85.5383 26.8816 85.3982 27.3136 85.3982 27.8039C85.3982 28.4576 85.6083 29.018 86.0286 29.4849C86.4488 29.9519 86.9975 30.3605 87.6746 30.7107C88.3517 31.0375 89.0988 31.3411 89.916 31.6212C90.7565 31.8781 91.5853 32.1465 92.4025 32.4267C93.8734 32.9404 95.2042 33.5007 96.3949 34.1078C97.5857 34.7148 98.6013 35.4269 99.4418 36.2441C100.306 37.0612 100.959 38.0185 101.403 39.1158C101.87 40.2132 102.103 41.5207 102.103 43.0383C102.103 45.1629 101.637 46.984 100.703 48.5016C99.792 49.9959 98.5663 51.2216 97.0253 52.1789C95.5077 53.1128 93.745 53.7899 91.7371 54.2101C89.7525 54.6537 87.6862 54.8755 85.5383 54.8755C81.5925 54.8755 77.9386 54.2685 74.5765 53.0544ZM135.689 52.7042C133.191 54.1518 129.584 54.8755 124.867 54.8755C119.357 54.8755 114.898 53.2062 111.489 49.8675C108.08 46.5287 106.376 42.2211 106.376 36.9445C106.376 30.8508 108.197 26.0528 111.839 22.5506C115.505 19.0251 120.396 17.2624 126.513 17.2624C130.739 17.2624 133.798 17.8227 135.689 18.9434V28.3292C133.378 26.6015 130.798 25.7376 127.949 25.7376C124.774 25.7376 122.253 26.6715 120.385 28.5393C118.54 30.3838 117.618 32.9404 117.618 36.2091C117.618 39.3843 118.505 41.8825 120.28 43.7037C122.054 45.5014 124.494 46.4003 127.599 46.4003C130.354 46.4003 133.051 45.5365 135.689 43.8087V52.7042ZM160.064 54.8755C154.087 54.8755 149.383 53.2062 145.95 49.8675C142.542 46.5054 140.837 41.9526 140.837 36.2091C140.837 30.2787 142.612 25.6442 146.161 22.3055C149.709 18.9434 154.507 17.2624 160.554 17.2624C166.508 17.2624 171.178 18.9434 174.563 22.3055C177.948 25.6442 179.641 30.0686 179.641 35.5787C179.641 41.5323 177.89 46.2369 174.388 49.6923C170.909 53.1478 166.135 54.8755 160.064 54.8755ZM160.344 25.7376C157.729 25.7376 155.698 26.6365 154.251 28.4343C152.803 30.232 152.079 32.7769 152.079 36.069C152.079 42.9565 154.858 46.4003 160.414 46.4003C165.714 46.4003 168.364 42.8631 168.364 35.7888C168.364 29.088 165.691 25.7376 160.344 25.7376ZM220.967 18.1379L207.623 54H195.016L182.303 18.1379H194.14L200.374 40.2365C201.074 42.7347 201.483 44.8594 201.6 46.6105H201.74C201.903 44.9528 202.335 42.8982 203.036 40.4467L209.41 18.1379H220.967ZM257.214 39.2209H233.82C234.193 44.4274 237.473 47.0307 243.661 47.0307C247.606 47.0307 251.073 46.0968 254.062 44.229V52.2139C250.747 53.9883 246.439 54.8755 241.139 54.8755C235.349 54.8755 230.854 53.2762 227.656 50.0776C224.457 46.8556 222.858 42.3728 222.858 36.6293C222.858 30.6756 224.586 25.9594 228.041 22.4806C231.496 19.0018 235.746 17.2624 240.789 17.2624C246.019 17.2624 250.058 18.815 252.906 21.9203C255.778 25.0255 257.214 29.2398 257.214 34.563V39.2209ZM246.953 32.4267C246.953 27.2902 244.875 24.722 240.719 24.722C238.944 24.722 237.403 25.4574 236.096 26.9283C234.812 28.3992 234.03 30.232 233.749 32.4267H246.953ZM287.192 28.1191C285.862 27.3953 284.309 27.0334 282.535 27.0334C280.13 27.0334 278.25 27.9206 276.896 29.695C275.542 31.4461 274.865 33.8393 274.865 36.8745V54H263.798V18.1379H274.865V24.792H275.005C276.756 19.9357 279.908 17.5075 284.461 17.5075C285.628 17.5075 286.539 17.6476 287.192 17.9278V28.1191ZM297.103 45.1746L291.955 62.8955H283.34L286.912 45.1746H297.103ZM343.192 52.2139C339.526 53.9883 334.74 54.8755 328.833 54.8755C321.128 54.8755 315.07 52.6108 310.657 48.0814C306.244 43.5519 304.038 37.5165 304.038 29.9752C304.038 21.9436 306.513 15.4296 311.462 10.4332C316.435 5.43678 322.879 2.93857 330.794 2.93857C335.697 2.93857 339.83 3.55729 343.192 4.79472V15.6864C339.83 13.6785 336.001 12.6746 331.705 12.6746C326.989 12.6746 323.183 14.1571 320.288 17.1223C317.393 20.0875 315.945 24.1033 315.945 29.1697C315.945 34.026 317.311 37.9018 320.043 40.7969C322.774 43.6686 326.452 45.1045 331.074 45.1045C335.487 45.1045 339.526 44.0305 343.192 41.8825V52.2139ZM367.952 54.8755C361.975 54.8755 357.271 53.2062 353.838 49.8675C350.43 46.5054 348.725 41.9526 348.725 36.2091C348.725 30.2787 350.5 25.6442 354.049 22.3055C357.597 18.9434 362.395 17.2624 368.442 17.2624C374.396 17.2624 379.066 18.9434 382.451 22.3055C385.836 25.6442 387.529 30.0686 387.529 35.5787C387.529 41.5323 385.778 46.2369 382.276 49.6923C378.797 53.1478 374.022 54.8755 367.952 54.8755ZM368.232 25.7376C365.617 25.7376 363.586 26.6365 362.139 28.4343C360.691 30.232 359.967 32.7769 359.967 36.069C359.967 42.9565 362.746 46.4003 368.302 46.4003C373.602 46.4003 376.252 42.8631 376.252 35.7888C376.252 29.088 373.579 25.7376 368.232 25.7376ZM405.775 54H394.709V0.907323H405.775V54ZM426.158 54H415.091V0.907323H426.158V54ZM467.693 39.2209H444.299C444.673 44.4274 447.953 47.0307 454.14 47.0307C458.086 47.0307 461.553 46.0968 464.542 44.229V52.2139C461.226 53.9883 456.918 54.8755 451.619 54.8755C445.828 54.8755 441.334 53.2762 438.135 50.0776C434.937 46.8556 433.337 42.3728 433.337 36.6293C433.337 30.6756 435.065 25.9594 438.521 22.4806C441.976 19.0018 446.225 17.2624 451.268 17.2624C456.498 17.2624 460.537 18.815 463.386 21.9203C466.258 25.0255 467.693 29.2398 467.693 34.563V39.2209ZM457.432 32.4267C457.432 27.2902 455.354 24.722 451.198 24.722C449.424 24.722 447.883 25.4574 446.575 26.9283C445.291 28.3992 444.509 30.232 444.229 32.4267H457.432ZM501.454 52.7042C498.956 54.1518 495.349 54.8755 490.633 54.8755C485.123 54.8755 480.663 53.2062 477.254 49.8675C473.846 46.5287 472.141 42.2211 472.141 36.9445C472.141 30.8508 473.962 26.0528 477.605 22.5506C481.27 19.0251 486.162 17.2624 492.279 17.2624C496.505 17.2624 499.563 17.8227 501.454 18.9434V28.3292C499.143 26.6015 496.563 25.7376 493.714 25.7376C490.539 25.7376 488.018 26.6715 486.15 28.5393C484.305 30.3838 483.383 32.9404 483.383 36.2091C483.383 39.3843 484.27 41.8825 486.045 43.7037C487.819 45.5014 490.259 46.4003 493.364 46.4003C496.119 46.4003 498.816 45.5365 501.454 43.8087V52.7042ZM530.417 53.5797C528.783 54.4436 526.32 54.8755 523.028 54.8755C515.229 54.8755 511.33 50.8247 511.33 42.7231V26.298H505.517V18.1379H511.33V10.3982L522.362 7.24622V18.1379H530.417V26.298H522.362V40.7969C522.362 44.5325 523.845 46.4003 526.81 46.4003C527.977 46.4003 529.18 46.0618 530.417 45.3847V53.5797ZM603.647 54.8055C602.41 54.8055 601.231 54.6421 600.11 54.3152C599.013 53.9883 597.962 53.5447 596.958 52.9844C595.977 52.424 595.044 51.7703 594.156 51.0232C593.269 50.2527 592.429 49.4355 591.635 48.5717C590.771 49.2721 589.732 49.9959 588.518 50.743C587.304 51.4901 585.926 52.1672 584.385 52.7742C582.868 53.3579 581.187 53.8366 579.342 54.2101C577.498 54.607 575.525 54.8055 573.424 54.8055C570.692 54.8055 568.159 54.4786 565.824 53.8249C563.512 53.1712 561.516 52.2022 559.835 50.9181C558.154 49.6106 556.835 47.9996 555.878 46.0851C554.944 44.1706 554.477 41.9526 554.477 39.431C554.477 37.4465 554.827 35.6837 555.528 34.1428C556.251 32.5785 557.185 31.2126 558.329 30.0453C559.473 28.8779 560.769 27.8739 562.217 27.0334C563.664 26.1929 565.135 25.4925 566.629 24.9321C565.906 24.3718 565.17 23.7297 564.423 23.0059C563.699 22.2588 563.046 21.4533 562.462 20.5894C561.878 19.7022 561.399 18.745 561.026 17.7177C560.676 16.6904 560.501 15.6047 560.501 14.4607C560.501 12.6162 560.874 10.9819 561.621 9.55765C562.368 8.13344 563.407 6.93103 564.738 5.95043C566.092 4.96982 567.703 4.2227 569.571 3.70905C571.439 3.1954 573.494 2.93857 575.735 2.93857C577.883 2.93857 579.844 3.20707 581.619 3.74407C583.416 4.28107 584.957 5.02819 586.241 5.98545C587.526 6.9427 588.518 8.09842 589.218 9.45258C589.919 10.7834 590.269 12.2543 590.269 13.8653C590.269 16.4569 589.487 18.7099 587.922 20.6245C586.382 22.5156 584.199 24.0566 581.373 25.2473C582.494 25.761 583.568 26.3446 584.595 26.9984C585.623 27.6521 586.627 28.3992 587.607 29.2398C588.588 30.0803 589.545 31.0375 590.479 32.1115C591.413 33.1622 592.335 34.3763 593.246 35.7538C595.16 33.349 596.526 30.7924 597.343 28.084C598.184 25.3524 598.604 22.5156 598.604 19.5738C598.604 18.6866 598.546 17.8344 598.429 17.0172C598.336 16.2001 598.172 15.4413 597.939 14.7408H607.359C607.616 15.488 607.803 16.2117 607.92 16.9122C608.037 17.6126 608.095 18.4414 608.095 19.3987C608.095 21.6634 607.85 23.8698 607.359 26.0178C606.892 28.1658 606.227 30.2204 605.363 32.1816C604.499 34.1428 603.449 35.9989 602.211 37.75C600.997 39.5011 599.655 41.1354 598.184 42.653C599.328 43.8437 600.507 44.766 601.721 45.4197C602.935 46.0501 604.079 46.3653 605.153 46.3653C606.274 46.3653 607.418 46.2486 608.585 46.0151C609.753 45.7583 610.768 45.408 611.632 44.9644V53.2996C610.348 53.8132 609.076 54.1868 607.815 54.4203C606.577 54.6771 605.188 54.8055 603.647 54.8055ZM573.984 46.4353C575.361 46.4353 576.657 46.3069 577.871 46.0501C579.085 45.7699 580.229 45.408 581.303 44.9644C582.377 44.5208 583.37 44.0072 584.28 43.4235C585.214 42.8398 586.066 42.2328 586.837 41.6024C585.646 39.7346 584.467 38.1586 583.3 36.8745C582.132 35.567 580.977 34.458 579.833 33.5474C578.688 32.6135 577.544 31.8314 576.4 31.201C575.28 30.5706 574.147 29.9986 573.003 29.4849C572.046 29.9519 571.124 30.4772 570.237 31.0609C569.373 31.6212 568.602 32.2866 567.925 33.0571C567.248 33.8042 566.699 34.6681 566.279 35.6487C565.882 36.606 565.684 37.715 565.684 38.9758C565.684 40.0964 565.882 41.1121 566.279 42.0226C566.676 42.9332 567.236 43.7153 567.96 44.3691C568.707 45.0228 569.583 45.5365 570.587 45.91C571.614 46.2602 572.746 46.4353 573.984 46.4353ZM580.463 14.6358C580.463 13.9587 580.334 13.3516 580.078 12.8147C579.821 12.2777 579.471 11.834 579.027 11.4838C578.583 11.1103 578.081 10.8301 577.521 10.6433C576.961 10.4332 576.365 10.3281 575.735 10.3281C574.965 10.3281 574.252 10.4449 573.599 10.6783C572.968 10.9118 572.408 11.227 571.918 11.6239C571.451 12.0208 571.089 12.4995 570.832 13.0598C570.575 13.5968 570.447 14.1805 570.447 14.8109C570.447 16.1184 570.855 17.3208 571.672 18.4181C572.49 19.5154 573.505 20.4027 574.719 21.0797C575.49 20.7996 576.214 20.4727 576.891 20.0991C577.591 19.7256 578.198 19.282 578.712 18.7683C579.249 18.2547 579.669 17.6593 579.973 16.9822C580.299 16.3051 580.463 15.523 580.463 14.6358ZM636.042 52.0738V40.8669C638.073 42.5713 640.28 43.8554 642.661 44.7193C645.043 45.5598 647.447 45.9801 649.876 45.9801C651.3 45.9801 652.537 45.8517 653.588 45.5948C654.662 45.338 655.549 44.9878 656.25 44.5442C656.973 44.0772 657.51 43.5402 657.861 42.9332C658.211 42.3028 658.386 41.6257 658.386 40.9019C658.386 39.9213 658.106 39.0458 657.545 38.2753C656.985 37.5048 656.215 36.7927 655.234 36.139C654.277 35.4853 653.133 34.8549 651.802 34.2478C650.471 33.6408 649.035 33.0221 647.494 32.3917C643.572 30.7574 640.642 28.7611 638.704 26.403C636.789 24.0449 635.832 21.1965 635.832 17.8578C635.832 15.2428 636.357 13.0014 637.408 11.1336C638.459 9.24245 639.883 7.68983 641.681 6.47575C643.502 5.26167 645.603 4.37446 647.984 3.81411C650.366 3.23042 652.887 2.93857 655.549 2.93857C658.164 2.93857 660.475 3.10201 662.483 3.42888C664.515 3.7324 666.382 4.21102 668.087 4.86476V15.3362C667.246 14.7525 666.324 14.2389 665.32 13.7953C664.34 13.3516 663.324 12.9898 662.273 12.7096C661.223 12.4061 660.172 12.1843 659.121 12.0442C658.094 11.9041 657.113 11.834 656.179 11.834C654.895 11.834 653.728 11.9625 652.677 12.2193C651.627 12.4528 650.739 12.7913 650.016 13.2349C649.292 13.6785 648.732 14.2155 648.335 14.8459C647.938 15.4529 647.739 16.1417 647.739 16.9122C647.739 17.7527 647.961 18.5115 648.405 19.1886C648.848 19.8423 649.479 20.4727 650.296 21.0797C651.113 21.6634 652.105 22.2471 653.273 22.8308C654.44 23.3912 655.759 23.9749 657.23 24.5819C659.238 25.4224 661.036 26.3213 662.623 27.2786C664.234 28.2125 665.612 29.2748 666.756 30.4655C667.9 31.6562 668.776 33.0221 669.383 34.563C669.99 36.0806 670.293 37.8551 670.293 39.8863C670.293 42.688 669.756 45.0462 668.682 46.9607C667.632 48.8518 666.196 50.3928 664.375 51.5835C662.553 52.7509 660.429 53.5914 658.001 54.1051C655.596 54.6187 653.051 54.8755 650.366 54.8755C647.611 54.8755 644.984 54.6421 642.486 54.1751C640.011 53.7082 637.863 53.0077 636.042 52.0738ZM709.692 39.2209H686.298C686.672 44.4274 689.952 47.0307 696.139 47.0307C700.085 47.0307 703.552 46.0968 706.54 44.229V52.2139C703.225 53.9883 698.917 54.8755 693.618 54.8755C687.827 54.8755 683.333 53.2762 680.134 50.0776C676.936 46.8556 675.336 42.3728 675.336 36.6293C675.336 30.6756 677.064 25.9594 680.519 22.4806C683.975 19.0018 688.224 17.2624 693.267 17.2624C698.497 17.2624 702.536 18.815 705.385 21.9203C708.257 25.0255 709.692 29.2398 709.692 34.563V39.2209ZM699.431 32.4267C699.431 27.2902 697.353 24.722 693.197 24.722C691.423 24.722 689.882 25.4574 688.574 26.9283C687.29 28.3992 686.508 30.232 686.228 32.4267H699.431ZM727.343 54H716.276V0.907323H727.343V54ZM747.726 54H736.659V0.907323H747.726V54ZM16.0555 129.699V147H4.74353V96.7791H22.4644C35.1189 96.7791 41.4461 102.114 41.4461 112.784C41.4461 117.827 39.625 121.913 35.9828 125.041C32.3639 128.147 27.5192 129.699 21.4488 129.699H16.0555ZM16.0555 105.464V121.119H20.5032C26.5269 121.119 29.5388 118.481 29.5388 113.204C29.5388 108.044 26.5269 105.464 20.5032 105.464H16.0555ZM62.6342 147.876C56.6572 147.876 51.9526 146.206 48.5205 142.867C45.1117 139.505 43.4073 134.953 43.4073 129.209C43.4073 123.279 45.1818 118.644 48.7306 115.305C52.2795 111.943 57.0774 110.262 63.1245 110.262C69.0781 110.262 73.7477 111.943 77.1331 115.305C80.5185 118.644 82.2112 123.069 82.2112 128.579C82.2112 134.532 80.4601 139.237 76.958 142.692C73.4792 146.148 68.7046 147.876 62.6342 147.876ZM62.9143 118.738C60.2994 118.738 58.2681 119.636 56.8206 121.434C55.373 123.232 54.6493 125.777 54.6493 129.069C54.6493 135.957 57.4276 139.4 62.9844 139.4C68.2843 139.4 70.9343 135.863 70.9343 128.789C70.9343 122.088 68.261 118.738 62.9143 118.738ZM100.598 142.832H100.457V163.495H89.3906V111.138H100.457V116.531H100.598C103.329 112.352 107.17 110.262 112.12 110.262C116.766 110.262 120.35 111.862 122.871 115.06C125.416 118.236 126.689 122.567 126.689 128.053C126.689 134.03 125.206 138.828 122.241 142.447C119.299 146.066 115.377 147.876 110.474 147.876C106.154 147.876 102.862 146.195 100.598 142.832ZM100.282 128.123V130.995C100.282 133.47 100.936 135.49 102.244 137.054C103.551 138.618 105.267 139.4 107.392 139.4C109.913 139.4 111.863 138.431 113.24 136.494C114.641 134.532 115.342 131.766 115.342 128.193C115.342 121.89 112.89 118.738 107.987 118.738C105.722 118.738 103.866 119.601 102.419 121.329C100.994 123.034 100.282 125.298 100.282 128.123ZM167.944 147H156.912V141.537H156.737C154.005 145.763 150.351 147.876 145.775 147.876C137.464 147.876 133.308 142.844 133.308 132.781V111.138H144.339V131.801C144.339 136.867 146.347 139.4 150.363 139.4C152.348 139.4 153.935 138.712 155.126 137.334C156.317 135.933 156.912 134.042 156.912 131.661V111.138H167.944V147ZM188.362 147H177.295V93.9073H188.362V147ZM227.516 147H217.044V141.852H216.904C214.499 145.868 210.939 147.876 206.223 147.876C202.744 147.876 200 146.895 197.992 144.934C196.008 142.949 195.016 140.311 195.016 137.019C195.016 130.061 199.137 126.045 207.378 124.971L217.114 123.676C217.114 119.753 214.99 117.792 210.74 117.792C206.468 117.792 202.405 119.064 198.553 121.609V113.274C200.094 112.48 202.195 111.78 204.857 111.173C207.542 110.566 209.982 110.262 212.176 110.262C222.402 110.262 227.516 115.364 227.516 125.567V147ZM217.114 132.431V130.015L210.6 130.855C207.005 131.322 205.207 132.945 205.207 135.723C205.207 136.984 205.639 138.023 206.503 138.84C207.39 139.634 208.581 140.031 210.075 140.031C212.153 140.031 213.846 139.319 215.153 137.894C216.461 136.447 217.114 134.626 217.114 132.431ZM259.665 121.119C258.335 120.395 256.782 120.033 255.008 120.033C252.603 120.033 250.723 120.921 249.369 122.695C248.015 124.446 247.338 126.839 247.338 129.874V147H236.271V111.138H247.338V117.792H247.478C249.229 112.936 252.381 110.508 256.934 110.508C258.101 110.508 259.012 110.648 259.665 110.928V121.119Z" fill="white"/>
</g>
<defs>
<filter id="filter0_d_0_1" x="273.955" y="81.3502" width="214.457" height="78.2979" filterUnits="userSpaceOnUse" color-interpolation-filters="sRGB">
<feFlood flood-opacity="0" result="BackgroundImageFix"/>
<feColorMatrix in="SourceAlpha" type="matrix" values="0 0 0 0 0 0 0 0 0 0 0 0 0 0 0 0 0 0 127 0" result="hardAlpha"/>
<feOffset dy="5.61404"/>
<feGaussianBlur stdDeviation="2.80702"/>
<feComposite in2="hardAlpha" operator="out"/>
<feColorMatrix type="matrix" values="0 0 0 0 0 0 0 0 0 0 0 0 0 0 0 0 0 0 0.25 0"/>
<feBlend mode="normal" in2="BackgroundImageFix" result="effect1_dropShadow_0_1"/>
<feBlend mode="normal" in="SourceGraphic" in2="effect1_dropShadow_0_1" result="shape"/>
</filter>
<filter id="filter1_d_0_1" x="0.743652" y="0.907349" width="750.982" height="170.588" filterUnits="userSpaceOnUse" color-interpolation-filters="sRGB">
<feFlood flood-opacity="0" result="BackgroundImageFix"/>
<feColorMatrix in="SourceAlpha" type="matrix" values="0 0 0 0 0 0 0 0 0 0 0 0 0 0 0 0 0 0 127 0" result="hardAlpha"/>
<feOffset dy="4"/>
<feGaussianBlur stdDeviation="2"/>
<feComposite in2="hardAlpha" operator="out"/>
<feColorMatrix type="matrix" values="0 0 0 0 0 0 0 0 0 0 0 0 0 0 0 0 0 0 0.25 0"/>
<feBlend mode="normal" in2="BackgroundImageFix" result="effect1_dropShadow_0_1"/>
<feBlend mode="normal" in="SourceGraphic" in2="effect1_dropShadow_0_1" result="shape"/>
</filter>
<linearGradient id="paint0_linear_0_1" x1="177.5" y1="78" x2="532.539" y2="226.493" gradientUnits="userSpaceOnUse">
<stop stop-color="#2A08B3"/>
<stop offset="1" stop-color="#EB72FF"/>
</linearGradient>
<linearGradient id="paint1_linear_0_1" x1="407" y1="187" x2="405" y2="44.5" gradientUnits="userSpaceOnUse">
<stop stop-color="#840487"/>
<stop offset="1" stop-color="#120448"/>
</linearGradient>
</defs>
</svg>
